<svg width="572" height="105" viewBox="0 0 572 105" fill="none" xmlns="http://www.w3.org/2000/svg">
<path d="M84.7413 51.6846C85.1488 75.7077 70.5077 100 37.286 100H0V5H37.2879C69.8274 5 84.3359 28.2077 84.7413 51.6846Z" fill="#0015D1"/>
<path d="M40.4068 45.749C40.4068 45.749 45.268 56.2228 61.1946 59.8783C61.1946 59.8783 53.7366 90.3575 14.6549 82.4408C14.6569 82.4309 35.2469 81.1979 40.4068 45.749Z" fill="white"/>
<path d="M35.4447 59.3005C35.4447 59.3005 30.5854 48.8267 14.6569 45.1771C14.6569 45.1771 22.1148 14.698 61.1966 22.6245C61.1966 22.6146 40.6065 23.8615 35.4447 59.3005Z" fill="white"/>
<path d="M123.236 22.7829L118.416 25.2635C117.323 23.426 114.285 21.6804 110.796 21.6804C106.298 21.6804 104.14 23.5638 104.14 25.9526C104.14 28.7547 107.445 29.5357 111.301 29.9951C118.003 30.8219 124.246 32.5676 124.246 40.2391C124.246 47.4054 117.907 50.4832 110.75 50.4832C104.193 50.4832 99.1366 48.4619 96.7496 42.5819L101.799 39.9569C103.218 43.5007 106.934 45.0626 110.842 45.0626C114.652 45.0626 118.233 43.7304 118.233 40.2391C118.233 37.2072 115.065 35.9669 110.801 35.5076C104.243 34.7266 98.177 32.981 98.177 25.7688C98.177 19.1538 104.695 16.4435 110.617 16.3976C115.616 16.4063 120.803 17.8216 123.236 22.7829ZM147.766 30.1329L147.95 27.0091H153.321V49.6563H148.042L147.766 46.3488C146.481 49.0132 142.957 50.2994 140.422 50.3454C133.72 50.3913 128.762 46.2569 128.762 38.3141C128.762 30.5047 133.949 26.4163 140.566 26.4622C143.589 26.4688 146.481 27.8819 147.766 30.1329ZM141.064 31.4651C137.348 31.4651 134.362 33.9916 134.362 38.3097C134.362 42.6279 137.346 45.2004 141.064 45.2004C149.878 45.2004 149.878 31.4651 141.064 31.4651ZM158.064 17.546H163.619V49.6563H158.064V17.546ZM168.371 17.546H173.971V36.1047L181.591 27.0091H188.293V27.3307L179.068 37.6666L189.58 49.2429V49.6563H182.83L173.971 39.4122V49.6563H168.371V17.546ZM201.802 26.5497C209.015 26.5497 213.645 31.8785 213.645 38.3622C213.645 44.8854 209.192 50.1747 201.841 50.1747C194.49 50.1747 190.09 44.8919 190.09 38.3622C190.09 31.8785 194.588 26.5497 201.802 26.5497ZM201.848 31.6488C197.808 31.6488 195.697 34.9563 195.697 38.3557C195.697 41.801 197.762 45.0166 201.848 45.0166C205.933 45.0166 207.999 41.801 207.999 38.3557C207.992 34.9563 205.605 31.6488 201.841 31.6488H201.848ZM238.162 49.6563H232.562V37.5288C232.562 34.5429 231.001 31.8413 227.926 31.8413C224.896 31.8413 223.117 34.5516 223.117 37.5288V49.6563H217.516V26.9632H222.703L223.117 29.7194C224.31 27.4226 226.927 26.5957 229.084 26.5957C231.792 26.5957 234.501 27.6894 235.786 30.8219C237.806 27.6063 240.422 26.6876 243.36 26.6876C249.787 26.6876 252.954 30.6382 252.954 37.4369V49.6563H247.354V37.4369C247.354 34.451 246.114 31.9244 243.085 31.9244C240.055 31.9244 238.173 34.5494 238.173 37.5288L238.162 49.6563ZM280.569 17.5001C291.586 17.5001 296.497 25.3554 296.635 33.3026C296.773 41.4335 291.826 49.6563 280.569 49.6563H267.945V17.5001H280.569ZM273.958 23.2422V43.8222H280.569C287.867 43.8222 290.759 38.4935 290.624 33.2566C290.486 28.2494 287.548 23.2422 280.569 23.2422H273.958ZM323.655 40.331H305.982C306.349 43.1332 308.782 45.1435 312.73 45.1435C314.795 45.1435 317.504 44.3626 318.789 43.0304L322.37 46.5676C319.983 49.0482 316.081 50.2426 312.638 50.2426C304.834 50.2426 300.198 45.4301 300.198 38.161C300.198 31.2704 304.88 26.3091 312.22 26.3091C319.79 26.3201 324.518 31.0057 323.646 40.331H323.655ZM306.069 35.6913H318.28C317.908 32.7513 315.613 31.2813 312.408 31.2813C309.37 31.2813 306.891 32.7513 306.069 35.6913ZM345.868 29.3476L342.742 33.0313C341.136 31.5154 339.299 31.0101 337.142 31.0101C334.479 31.0101 333.011 31.8369 333.011 33.261C333.011 34.731 334.342 35.5579 337.234 35.7416C341.503 36.0172 346.919 36.9819 346.919 42.9997C346.919 46.9963 343.66 50.4372 337.188 50.4372C333.607 50.4372 330.027 49.8401 326.722 46.3947L329.476 42.3982C331.083 44.1897 334.755 45.5219 337.28 45.5679C339.391 45.6138 341.365 44.5113 341.365 42.8576C341.365 41.2957 340.08 40.6526 336.866 40.4688C332.597 40.1472 327.502 38.5854 327.502 33.4404C327.502 28.2035 332.919 26.366 337.05 26.366C340.585 26.366 343.247 27.0551 345.864 29.3519L345.868 29.3476ZM356.115 26.9129V49.6563H350.515V26.9172L356.115 26.9129ZM350.006 20.6238C350.006 24.9988 356.616 24.9988 356.616 20.6238C356.616 16.2488 350.006 16.2597 350.006 20.6238ZM376.696 27.5626L378.945 24.7188L383.076 27.8426L380.552 31.0626C382.3 33.0313 382.939 35.2888 382.939 37.7694C382.939 40.5716 381.883 44.5222 378.165 46.2219C381.929 48.1054 382.847 50.8157 382.847 53.7097C382.847 59.9572 378.073 63.816 371.509 63.816C364.944 63.816 360.033 59.8194 360.033 53.7097H365.587C365.587 56.6497 368.295 58.5791 371.509 58.5791C374.722 58.5791 377.247 56.8291 377.247 53.7097C377.247 50.5904 374.309 49.1619 371.509 49.1619C364.439 49.1619 360.033 44.8438 360.033 37.7694C360.033 30.6951 365.174 26.2851 371.509 26.2851C373.299 26.2741 375.144 26.5038 376.696 27.5626ZM371.509 31.3754C368.249 31.3754 365.587 33.8101 365.587 37.7607C365.587 41.7113 368.249 44.0541 371.509 44.0541C374.722 44.0541 377.384 41.6654 377.384 37.7607C377.384 33.856 374.722 31.3732 371.509 31.3732V31.3754ZM408.769 49.6563H403.169V37.8044C403.169 34.3591 401.287 31.7407 397.704 31.7407C394.262 31.7407 391.921 34.6347 391.921 38.0844V49.6563H386.366V26.9632H391.37L391.737 30.041C394.032 27.7901 396.327 26.6416 399.169 26.6416C404.494 26.6416 408.763 30.6382 408.763 37.7585L408.769 49.6563ZM447.934 22.7829L443.114 25.2635C442.021 23.426 438.983 21.6804 435.494 21.6804C430.996 21.6804 428.838 23.5638 428.838 25.9526C428.838 28.7547 432.143 29.5357 435.999 29.9951C442.701 30.8219 448.944 32.5676 448.944 40.2391C448.944 47.4054 442.605 50.4832 435.448 50.4832C428.891 50.4832 423.835 48.4619 421.459 42.5819L426.508 39.9569C427.931 43.4941 431.649 45.056 435.551 45.056C439.361 45.056 442.942 43.7238 442.942 40.2326C442.942 37.2007 439.774 35.9604 435.51 35.501C428.952 34.7201 422.886 32.9744 422.886 25.7622C422.886 19.1472 429.404 16.4369 435.326 16.391C440.305 16.4063 445.493 17.8216 447.934 22.7829ZM456 21.2188L461.601 20.6216V27.0529H467.843V31.8654H461.555V41.6501C461.555 43.8091 462.748 44.8657 464.492 44.8657C465.435 44.8385 466.36 44.6032 467.201 44.1766L468.762 48.9541C467.292 49.5681 465.718 49.8956 464.125 49.9188C459.214 50.1026 456 47.2938 456 41.6501V31.8785H451.777V27.066H456V21.2188ZM472.176 27.0069H477.776V38.8588C477.776 42.3041 479.658 44.9226 483.241 44.9226C486.684 44.9226 489.025 42.0285 489.025 38.5788V27.0091H494.579V49.7022H489.576L489.208 46.6244C486.867 48.9213 484.71 50.0238 481.542 50.0238C476.126 50.0238 472.178 45.9354 472.178 38.9069L472.176 27.0069ZM510.49 31.6926C506.91 31.6926 504.064 34.2191 504.064 38.3076C504.064 42.2582 506.905 44.9685 510.49 44.9685C514.025 44.9685 517.048 42.396 517.048 38.3076C517.055 34.3591 514.025 31.6947 510.49 31.6947V31.6926ZM517.422 17.5438H523.022V49.6563H517.789L517.422 46.5326C515.673 49.2429 512.877 50.1616 510.123 50.1616C503.467 50.1616 498.464 45.7516 498.464 38.3097C498.464 30.5004 503.375 26.4579 509.985 26.4579C512.372 26.4579 516.091 27.7441 517.418 30.0869L517.422 17.5438ZM533.495 26.9151V49.6563H527.895V26.9172L533.495 26.9151ZM527.39 20.6216C527.39 24.9966 534 24.9966 534 20.6216C534 16.2466 527.39 16.2597 527.39 20.6238V20.6216ZM549.708 26.5476C556.921 26.5476 561.551 31.8763 561.551 38.3601C561.551 44.8832 557.098 50.1726 549.747 50.1726C542.396 50.1726 537.996 44.8897 537.996 38.3601C537.993 31.8785 542.501 26.5497 549.708 26.5497V26.5476ZM549.754 31.6466C545.714 31.6466 543.602 34.9541 543.602 38.3535C543.602 41.7988 545.668 45.0144 549.754 45.0144C553.839 45.0144 555.905 41.7988 555.905 38.3535C555.905 34.9563 553.513 31.6488 549.754 31.6488V31.6466Z" fill="#0015D1"/>
<path d="M174.231 84.8509C173.479 84.8671 172.733 84.7178 172.045 84.4134C171.451 84.1373 170.947 83.7 170.589 83.1512C170.236 82.5837 170.056 81.9253 170.071 81.2568H171.77C171.778 81.652 171.877 82.0399 172.06 82.39C172.259 82.7284 172.544 83.0078 172.887 83.1993C173.304 83.4046 173.764 83.5045 174.229 83.4903C174.628 83.5032 175.026 83.4285 175.394 83.2715C175.701 83.1426 175.965 82.9286 176.155 82.6546C176.326 82.3651 176.416 82.034 176.412 81.6973C176.409 81.3607 176.314 81.0313 176.137 80.7449C175.944 80.4781 175.689 80.262 175.394 80.1149C175.054 79.9263 174.696 79.7738 174.325 79.6599C173.927 79.5316 173.507 79.3916 173.064 79.2399C172.17 78.9483 171.502 78.5706 171.059 78.1068C170.612 77.6116 170.376 76.9605 170.403 76.2934C170.387 75.7168 170.541 75.1482 170.845 74.6587C171.15 74.1692 171.593 73.7806 172.117 73.5415C172.727 73.2746 173.385 73.1368 174.051 73.1368C174.716 73.1368 175.374 73.2746 175.984 73.5415C176.509 73.7898 176.956 74.1762 177.278 74.6593C177.597 75.1559 177.759 75.7363 177.746 76.3262H176.032C176.032 76.0266 175.957 75.7317 175.814 75.4687C175.657 75.181 175.421 74.9447 175.134 74.7884C174.795 74.595 174.409 74.4996 174.019 74.5128C173.68 74.4963 173.342 74.5576 173.031 74.6921C172.754 74.8096 172.518 75.0068 172.353 75.2587C172.186 75.5249 172.102 75.8348 172.111 76.149C172.1 76.4443 172.176 76.7363 172.329 76.989C172.506 77.2139 172.73 77.3969 172.985 77.5249C173.297 77.69 173.622 77.8304 173.956 77.9449C174.334 78.0631 174.747 78.1987 175.202 78.3496C175.722 78.5158 176.222 78.7442 176.688 79.0299C177.116 79.2736 177.473 79.625 177.724 80.0493C178.001 80.5305 178.136 81.0804 178.113 81.6353C178.115 82.1891 177.964 82.7327 177.676 83.2059C177.36 83.7147 176.913 84.1288 176.382 84.4046C175.712 84.7273 174.974 84.8805 174.231 84.8509ZM180.052 84.6562V76.4968H181.67V84.6562H180.052ZM180.878 74.959C180.736 74.9642 180.594 74.9411 180.461 74.8912C180.328 74.8412 180.206 74.7654 180.102 74.6681C180.005 74.5707 179.929 74.4545 179.879 74.3266C179.828 74.1986 179.805 74.0617 179.809 73.9243C179.805 73.7915 179.829 73.6592 179.879 73.5363C179.93 73.4133 180.006 73.3025 180.102 73.2112C180.206 73.1139 180.328 73.038 180.461 72.9881C180.594 72.9382 180.736 72.9151 180.878 72.9203C181.018 72.9163 181.157 72.94 181.288 72.9899C181.418 73.0398 181.538 73.115 181.639 73.2112C181.739 73.3005 181.818 73.4106 181.871 73.5338C181.924 73.657 181.949 73.7903 181.945 73.9243C181.949 74.0629 181.924 74.2007 181.871 74.3289C181.819 74.4571 181.739 74.5726 181.639 74.6681C181.538 74.7643 181.418 74.8395 181.288 74.8894C181.157 74.9393 181.018 74.963 180.878 74.959ZM183.984 84.6562V76.4968H185.44L185.552 77.6474C185.805 77.2328 186.162 76.8919 186.588 76.6587C187.035 76.4183 187.536 76.2963 188.044 76.3043C188.423 76.2995 188.801 76.3594 189.161 76.4815C189.488 76.586 189.791 76.7565 190.05 76.9825C190.315 77.2178 190.529 77.5043 190.68 77.8246C190.964 77.3569 191.366 76.9722 191.845 76.709C192.325 76.4425 192.865 76.3032 193.414 76.3043C194.006 76.2875 194.592 76.4271 195.113 76.709C195.597 76.9725 195.981 77.3874 196.206 77.8903C196.472 78.5022 196.599 79.1657 196.577 79.8328V84.6562H194.975V79.9946C194.975 79.2378 194.82 78.6668 194.507 78.2774C194.346 78.0804 194.139 77.9247 193.906 77.8235C193.672 77.7223 193.417 77.6785 193.163 77.6956C192.785 77.6898 192.413 77.7972 192.096 78.004C191.769 78.2242 191.511 78.533 191.353 78.8943C191.168 79.3456 191.079 79.8307 191.093 80.3184V84.6562H189.475V79.9946C189.475 79.2378 189.32 78.6668 189.008 78.2774C188.846 78.0806 188.639 77.9252 188.406 77.824C188.172 77.7229 187.917 77.6788 187.663 77.6956C187.296 77.693 186.936 77.8004 186.629 78.004C186.302 78.2247 186.044 78.5333 185.884 78.8943C185.689 79.3429 185.595 79.8293 185.611 80.3184V84.6562H183.984ZM198.658 88.2174V76.4968H200.114L200.276 77.7612C200.462 77.5002 200.683 77.2655 200.932 77.0634C201.205 76.8285 201.517 76.6428 201.854 76.5143C202.263 76.3643 202.695 76.2901 203.131 76.2956C203.852 76.279 204.561 76.4761 205.17 76.8621C205.761 77.236 206.237 77.7659 206.545 78.3934C206.889 79.0704 207.061 79.8216 207.046 80.5809C207.059 81.3441 206.887 82.0992 206.545 82.7815C206.227 83.4012 205.746 83.9218 205.153 84.2865C204.541 84.6624 203.833 84.8538 203.115 84.8378C202.534 84.8498 201.957 84.7223 201.435 84.4659C200.959 84.2248 200.557 83.8597 200.272 83.4093V88.2218L198.658 88.2174ZM202.849 83.4421C203.311 83.452 203.767 83.3282 204.16 83.0856C204.553 82.8457 204.867 82.4969 205.065 82.0815C205.301 81.6155 205.418 81.0986 205.406 80.5765C205.419 80.0592 205.302 79.5471 205.065 79.0868C204.866 78.6726 204.552 78.3246 204.16 78.0849C203.77 77.8317 203.314 77.7014 202.849 77.7109C202.384 77.7015 201.926 77.8262 201.531 78.0702C201.135 78.3142 200.818 78.6672 200.617 79.0868C200.391 79.5502 200.279 80.061 200.291 80.5765C200.28 81.0968 200.392 81.6125 200.617 82.0815C200.812 82.4939 201.121 82.8421 201.507 83.0856C201.912 83.3285 202.377 83.4521 202.849 83.4421ZM208.926 84.6562V73.0012H210.543V84.6562H208.926ZM212.878 84.6562V76.4968H214.495V84.6562H212.878ZM213.704 74.959C213.416 74.9683 213.137 74.8638 212.926 74.6681C212.83 74.5702 212.754 74.4539 212.704 74.326C212.654 74.1982 212.631 74.0615 212.635 73.9243C212.631 73.7917 212.654 73.6596 212.705 73.5368C212.755 73.4139 212.83 73.303 212.926 73.2112C213.137 73.0155 213.416 72.911 213.704 72.9203C213.843 72.9161 213.982 72.9397 214.112 72.9896C214.243 73.0396 214.362 73.1149 214.462 73.2112C214.563 73.3 214.643 73.41 214.696 73.5333C214.75 73.6566 214.775 73.7901 214.771 73.9243C214.775 74.0631 214.75 74.2012 214.697 74.3294C214.643 74.4577 214.564 74.5731 214.462 74.6681C214.362 74.7644 214.243 74.8397 214.112 74.8896C213.982 74.9396 213.843 74.9632 213.704 74.959ZM217.245 84.6562V75.3965C217.227 74.9225 217.321 74.451 217.521 74.0206C217.705 73.6736 218.002 73.3997 218.362 73.244C218.783 73.0719 219.235 72.9892 219.689 73.0012H220.642V74.3749H219.945C219.644 74.3475 219.343 74.4342 219.103 74.6178C218.941 74.7687 218.861 75.0378 218.861 75.4271V84.6562H217.245ZM216.049 77.8749V76.4968H220.819V77.8749H216.049ZM223.403 88.2196L225.392 83.7528H224.922L221.704 76.499H223.453L226.008 82.4249L228.581 76.499H230.28L225.103 88.2196H223.403ZM231.819 84.6584V76.4968H233.436V84.6562L231.819 84.6584ZM232.643 74.9612C232.356 74.9699 232.077 74.8654 231.867 74.6703C231.77 74.5727 231.694 74.4564 231.644 74.3285C231.594 74.2006 231.571 74.0638 231.576 73.9265C231.571 73.7938 231.594 73.6616 231.645 73.5386C231.695 73.4157 231.77 73.3048 231.867 73.2134C232.077 73.0182 232.356 72.9137 232.643 72.9224C232.782 72.9185 232.921 72.9422 233.052 72.9921C233.182 73.042 233.302 73.1172 233.403 73.2134C233.504 73.3022 233.584 73.4122 233.637 73.5355C233.69 73.6587 233.716 73.7923 233.712 73.9265C233.716 74.0653 233.691 74.2034 233.637 74.3316C233.584 74.4598 233.504 74.5753 233.403 74.6703C233.302 74.766 233.182 74.8408 233.052 74.8904C232.921 74.9399 232.782 74.9633 232.643 74.959V74.9612ZM235.749 84.6562V76.4968H237.213L237.309 77.8903C237.561 77.4131 237.939 77.0148 238.402 76.7396C238.895 76.4433 239.461 76.2917 240.035 76.3021C240.615 76.286 241.188 76.4193 241.701 76.6893C242.179 76.9598 242.561 77.3727 242.794 77.8706C243.074 78.4878 243.208 79.1618 243.183 79.8393V84.6562H241.565V79.9946C241.565 79.2378 241.397 78.6668 241.063 78.2774C240.879 78.0781 240.652 77.9224 240.401 77.8217C240.149 77.721 239.878 77.6779 239.607 77.6956C239.205 77.691 238.811 77.7993 238.467 78.0082C238.124 78.217 237.847 78.5179 237.666 78.8768C237.46 79.3225 237.36 79.81 237.375 80.3009V84.6562H235.749ZM248.558 88.4121C247.891 88.4219 247.227 88.3236 246.591 88.1212C246.074 87.9726 245.613 87.6734 245.266 87.2615C244.947 86.8571 244.78 86.3527 244.796 85.8374C244.8 85.5305 244.866 85.2276 244.991 84.9471C245.142 84.6268 245.356 84.3403 245.62 84.105C245.972 83.7989 246.371 83.5528 246.803 83.3765L247.708 84.105C247.157 84.3106 246.785 84.5534 246.591 84.8334C246.423 85.0829 246.328 85.3748 246.318 85.6756C246.307 85.9727 246.411 86.2624 246.608 86.4849C246.824 86.7152 247.097 86.883 247.4 86.9706C247.777 87.0838 248.17 87.1384 248.565 87.1324C248.937 87.1395 249.307 87.0794 249.658 86.9553C249.941 86.8561 250.193 86.6823 250.386 86.4521C250.559 86.2375 250.651 85.9688 250.646 85.6931C250.648 85.5277 250.615 85.3638 250.547 85.2127C250.48 85.0616 250.381 84.9269 250.257 84.8181C249.999 84.5993 249.502 84.4571 248.768 84.4134C248.154 84.3696 247.632 84.3106 247.201 84.2362C246.83 84.1738 246.464 84.0816 246.108 83.9606C245.848 83.8676 245.598 83.7481 245.362 83.604C245.183 83.4856 245.015 83.3501 244.862 83.1993V82.8275L246.479 81.1606L247.791 81.6134L246.029 83.2474L246.368 82.519C246.486 82.5956 246.6 82.67 246.709 82.7378C246.847 82.8137 246.994 82.8732 247.146 82.9149C247.391 82.9815 247.64 83.0305 247.891 83.0615C248.204 83.1053 248.613 83.1468 249.12 83.1906C249.726 83.2154 250.323 83.3472 250.884 83.5799C251.291 83.745 251.635 84.0334 251.87 84.4046C252.083 84.7786 252.189 85.2037 252.178 85.634C252.177 86.1046 252.042 86.5652 251.789 86.9618C251.505 87.4157 251.095 87.7762 250.609 87.9987C249.967 88.2946 249.264 88.4361 248.558 88.4121ZM248.558 82.1471C247.948 82.1656 247.342 82.0318 246.796 81.7578C246.342 81.5147 245.964 81.1505 245.703 80.7056C245.454 80.2555 245.326 79.7481 245.332 79.2334C245.323 78.7184 245.451 78.2103 245.703 77.7612C245.969 77.3119 246.356 76.9471 246.82 76.709C247.359 76.4254 247.961 76.286 248.569 76.3043C249.172 76.285 249.769 76.4246 250.3 76.709C250.76 76.945 251.14 77.3109 251.393 77.7612C251.657 78.2063 251.792 78.716 251.782 79.2334C251.789 79.7504 251.654 80.2594 251.393 80.7056C251.14 81.1559 250.76 81.5217 250.3 81.7578C249.762 82.0337 249.163 82.1677 248.558 82.1471ZM248.558 80.8521C249.014 80.876 249.463 80.7321 249.819 80.4474C249.981 80.2915 250.107 80.1021 250.188 79.8924C250.27 79.6827 250.304 79.4578 250.289 79.2334C250.305 79.0112 250.271 78.7883 250.19 78.5809C250.108 78.3735 249.982 78.1869 249.819 78.0346C249.467 77.7406 249.016 77.5906 248.558 77.6146C248.095 77.5925 247.641 77.742 247.282 78.0346C247.115 78.1843 246.984 78.3701 246.9 78.5778C246.816 78.7856 246.781 79.0098 246.796 79.2334C246.782 79.4591 246.818 79.6853 246.902 79.8954C246.986 80.1054 247.115 80.2941 247.282 80.4474C247.645 80.7305 248.098 80.874 248.558 80.8521ZM249.885 77.7765L249.496 76.4968H252.845V77.6146L249.885 77.7765ZM258.688 84.6562V73.325H262.165C263.477 73.325 264.566 73.5568 265.433 74.0206C266.265 74.4533 266.935 75.144 267.342 75.9893C267.757 76.9388 267.971 77.964 267.971 79.0004C267.971 80.0368 267.757 81.062 267.342 82.0115C266.932 82.8521 266.263 83.5386 265.433 83.9693C264.581 84.4229 263.492 84.6496 262.165 84.6496L258.688 84.6562ZM260.305 83.2956H262.1C263.148 83.2956 263.978 83.1235 264.592 82.7793C265.187 82.456 265.651 81.9344 265.903 81.3049C266.442 79.8144 266.442 78.1821 265.903 76.6915C265.655 76.0558 265.191 75.5282 264.592 75.2018C263.978 74.8562 263.148 74.6841 262.1 74.6856H260.305V83.2956ZM273.526 84.8509C272.8 84.8634 272.085 84.679 271.455 84.3171C270.853 83.9614 270.36 83.4459 270.032 82.8275C269.686 82.1404 269.513 81.3787 269.53 80.6093C269.511 79.8292 269.684 79.0563 270.032 78.3584C270.357 77.7334 270.85 77.212 271.455 76.8534C272.092 76.478 272.82 76.2878 273.558 76.3043C274.28 76.2838 274.993 76.4689 275.613 76.8381C276.175 77.1854 276.633 77.6772 276.94 78.2621C277.256 78.8602 277.417 79.5281 277.408 80.2046C277.408 80.3118 277.408 80.4234 277.392 80.5612C277.377 80.699 277.392 80.8149 277.375 80.9659H270.712V79.8153H275.79C275.791 79.5184 275.731 79.2245 275.614 78.9518C275.498 78.679 275.326 78.4331 275.11 78.2293C274.683 77.8389 274.121 77.6302 273.543 77.6474C273.119 77.6429 272.701 77.7484 272.33 77.9537C271.956 78.1543 271.647 78.458 271.44 78.8287C271.208 79.2727 271.097 79.7697 271.117 80.2703V80.7187C271.102 81.2476 271.213 81.7724 271.44 82.2499C271.636 82.6327 271.935 82.9526 272.304 83.1731C272.673 83.3936 273.096 83.5058 273.526 83.4968C273.976 83.5154 274.422 83.3963 274.804 83.1556C275.139 82.9293 275.398 82.6077 275.547 82.2325H277.165C277.026 82.7261 276.784 83.1846 276.455 83.5778C276.112 83.9721 275.686 84.2865 275.209 84.4987C274.68 84.7388 274.106 84.8591 273.526 84.8509ZM282.359 84.8509C281.738 84.8643 281.122 84.7481 280.549 84.5096C280.061 84.3125 279.637 83.9846 279.323 83.5621C279.009 83.1396 278.818 82.6386 278.769 82.1143H280.418C280.471 82.3705 280.576 82.6132 280.726 82.8275C280.9 83.0504 281.125 83.2282 281.382 83.3459C281.692 83.4807 282.029 83.5464 282.367 83.5384C282.666 83.5485 282.963 83.4994 283.242 83.394C283.452 83.3066 283.632 83.1599 283.76 82.9718C283.865 82.796 283.921 82.595 283.922 82.39C283.932 82.2677 283.918 82.1446 283.881 82.0278C283.843 81.911 283.783 81.8029 283.703 81.7096C283.524 81.5256 283.297 81.3966 283.047 81.3378C282.714 81.2273 282.374 81.1411 282.029 81.0796C281.659 81.0148 281.295 80.9279 280.936 80.8193C280.608 80.709 280.293 80.5622 279.998 80.3818C279.732 80.2166 279.507 79.992 279.342 79.7256C279.172 79.4253 279.088 79.0839 279.1 78.739C279.093 78.2951 279.223 77.8599 279.471 77.4921C279.73 77.1048 280.095 76.8008 280.523 76.6171C281.037 76.3906 281.594 76.28 282.155 76.2934C283.063 76.2934 283.792 76.5121 284.341 76.9496C284.619 77.1727 284.848 77.4498 285.014 77.7642C285.181 78.0786 285.282 78.4236 285.312 78.7784H283.742C283.73 78.6106 283.679 78.4479 283.595 78.3021C283.511 78.1563 283.396 78.0313 283.257 77.9362C282.928 77.7162 282.537 77.608 282.142 77.6278C281.766 77.6039 281.392 77.7004 281.073 77.9034C280.957 77.9853 280.862 78.0945 280.797 78.2215C280.733 78.3484 280.7 78.4893 280.702 78.6318C280.704 78.8267 280.782 79.0129 280.92 79.1503C281.095 79.3233 281.306 79.4562 281.537 79.5396C281.871 79.651 282.211 79.7423 282.555 79.8131C283.075 79.9089 283.587 80.0442 284.086 80.2178C284.506 80.3555 284.883 80.6015 285.179 80.9309C285.471 81.3151 285.614 81.7921 285.583 82.274C285.601 82.7519 285.464 83.2229 285.194 83.6171C284.917 84.0212 284.529 84.3365 284.077 84.5249C283.534 84.756 282.948 84.8671 282.359 84.8509ZM287.581 84.6562V76.4968H289.198V84.6562H287.581ZM288.405 74.959C288.118 74.9677 287.839 74.8632 287.629 74.6681C287.532 74.5705 287.457 74.4542 287.407 74.3263C287.357 74.1984 287.333 74.0616 287.338 73.9243C287.333 73.7916 287.357 73.6594 287.407 73.5365C287.457 73.4135 287.533 73.3026 287.629 73.2112C287.839 73.016 288.118 72.9115 288.405 72.9203C288.545 72.9163 288.684 72.94 288.814 72.9899C288.945 73.0398 289.064 73.115 289.166 73.2112C289.266 73.3002 289.345 73.4103 289.398 73.5336C289.451 73.6568 289.476 73.7903 289.472 73.9243C289.476 74.0629 289.451 74.2009 289.399 74.3291C289.346 74.4574 289.266 74.5729 289.166 74.6681C289.064 74.7643 288.945 74.8395 288.814 74.8894C288.684 74.9393 288.545 74.963 288.405 74.959ZM294.827 88.4121C294.16 88.4222 293.496 88.324 292.86 88.1212C292.342 87.9726 291.88 87.6733 291.533 87.2615C291.214 86.8568 291.049 86.3525 291.065 85.8374C291.068 85.5307 291.134 85.2277 291.258 84.9471C291.41 84.6272 291.625 84.3409 291.889 84.105C292.24 83.7984 292.639 83.5523 293.07 83.3765L293.977 84.105C293.426 84.3106 293.054 84.5534 292.86 84.8334C292.69 85.0823 292.595 85.3744 292.584 85.6756C292.575 85.9725 292.679 86.2619 292.875 86.4849C293.091 86.715 293.365 86.8827 293.669 86.9706C294.046 87.0839 294.439 87.1385 294.834 87.1324C295.206 87.1393 295.576 87.0793 295.927 86.9553C296.21 86.8561 296.462 86.6823 296.655 86.4521C296.827 86.2373 296.918 85.9686 296.912 85.6931C296.915 85.5279 296.882 85.3642 296.815 85.2132C296.748 85.0621 296.649 84.9273 296.526 84.8181C296.265 84.5993 295.769 84.4571 295.037 84.4134C294.423 84.3696 293.9 84.3106 293.467 84.2362C293.096 84.1733 292.731 84.0811 292.375 83.9606C292.115 83.8677 291.866 83.7482 291.631 83.604C291.451 83.4862 291.284 83.3506 291.131 83.1993V82.8275L292.748 81.1606L294.06 81.6134L292.296 83.2474L292.637 82.519C292.755 82.5956 292.869 82.67 292.976 82.7378C293.114 82.8135 293.261 82.873 293.413 82.9149C293.657 82.9815 293.905 83.0305 294.156 83.0615C294.469 83.1053 294.88 83.1468 295.387 83.1906C295.992 83.2156 296.589 83.3475 297.149 83.5799C297.556 83.7444 297.902 84.0329 298.137 84.4046C298.349 84.7788 298.455 85.204 298.443 85.634C298.441 86.1043 298.307 86.5646 298.056 86.9618C297.771 87.4147 297.361 87.7749 296.875 87.9987C296.234 88.2942 295.533 88.4358 294.827 88.4121ZM294.827 82.1471C294.216 82.1656 293.61 82.0318 293.063 81.7578C292.608 81.5156 292.23 81.1512 291.97 80.7056C291.721 80.2555 291.592 79.7481 291.599 79.2334C291.59 78.7184 291.718 78.2103 291.97 77.7612C292.235 77.3115 292.623 76.9465 293.087 76.709C293.625 76.4254 294.228 76.286 294.836 76.3043C295.438 76.285 296.035 76.4246 296.567 76.709C297.026 76.9457 297.406 77.3114 297.66 77.7612C297.922 78.2069 298.056 78.7164 298.047 79.2334C298.053 79.7501 297.919 80.2588 297.66 80.7056C297.406 81.1554 297.026 81.5211 296.567 81.7578C296.03 82.0333 295.431 82.1673 294.827 82.1471ZM294.827 80.8521C295.283 80.876 295.732 80.7321 296.088 80.4474C296.25 80.2915 296.376 80.1021 296.457 79.8924C296.539 79.6827 296.573 79.4578 296.558 79.2334C296.574 79.0112 296.54 78.7883 296.459 78.5809C296.377 78.3735 296.251 78.1869 296.088 78.0346C295.736 77.7406 295.285 77.5906 294.827 77.6146C294.364 77.5925 293.909 77.7421 293.548 78.0346C293.382 78.1843 293.251 78.3701 293.167 78.5778C293.083 78.7856 293.047 79.0098 293.063 79.2334C293.048 79.4591 293.084 79.6853 293.168 79.8954C293.252 80.1054 293.382 80.2941 293.548 80.4474C293.913 80.7305 294.366 80.874 294.827 80.8521ZM296.154 77.7765L295.765 76.4968H299.114V77.6146L296.154 77.7765ZM300.744 84.6562V76.4968H302.2L302.299 77.8903C302.549 77.4124 302.927 77.0139 303.391 76.7396C303.884 76.4433 304.45 76.2917 305.024 76.3021C305.604 76.286 306.177 76.4193 306.69 76.6893C307.168 76.9598 307.55 77.3727 307.783 77.8706C308.064 78.4876 308.197 79.1617 308.172 79.8393V84.6562H306.554V79.9946C306.554 79.2378 306.386 78.6668 306.052 78.2774C305.868 78.0781 305.641 77.9224 305.39 77.8217C305.138 77.721 304.867 77.6779 304.596 77.6956C304.194 77.691 303.8 77.7993 303.456 78.0082C303.113 78.217 302.836 78.5179 302.655 78.8768C302.45 79.3228 302.35 79.8101 302.364 80.3009V84.6562H300.744ZM309.3 86.6468L310.222 82.9062H311.855L310.384 86.6446L309.3 86.6468ZM316.999 84.6562L321.152 73.325H322.916L327.069 84.6562H325.338L322.026 75.2674L318.691 84.6562H316.999ZM318.874 81.8562L319.327 80.5612H324.649L325.102 81.8562H318.874ZM328.608 84.6562V76.4968H330.064L330.178 77.6474C330.429 77.2324 330.786 76.8913 331.211 76.6587C331.659 76.4183 332.16 76.2963 332.667 76.3043C333.047 76.2993 333.425 76.3593 333.784 76.4815C334.112 76.586 334.415 76.7565 334.674 76.9825C334.938 77.2178 335.153 77.5043 335.303 77.8246C335.588 77.3574 335.99 76.9728 336.469 76.709C336.949 76.4425 337.489 76.3032 338.038 76.3043C338.63 76.2875 339.216 76.4271 339.736 76.709C340.22 76.9725 340.604 77.3874 340.829 77.8903C341.096 78.5022 341.222 79.1657 341.201 79.8328V84.6562H339.599V79.9946C339.599 79.2378 339.444 78.6668 339.131 78.2774C338.97 78.0807 338.764 77.9253 338.53 77.8241C338.297 77.7229 338.043 77.6788 337.789 77.6956C337.41 77.6895 337.038 77.7969 336.72 78.004C336.393 78.2248 336.136 78.5334 335.977 78.8943C335.791 79.3456 335.703 79.8307 335.717 80.3184V84.6562H334.099V79.9946C334.099 79.2378 333.944 78.6668 333.631 78.2774C333.47 78.0807 333.264 77.9253 333.03 77.8241C332.797 77.7229 332.543 77.6788 332.289 77.6956C331.921 77.6927 331.56 77.8001 331.253 78.004C330.926 78.2242 330.668 78.533 330.51 78.8943C330.314 79.3428 330.22 79.8292 330.234 80.3184V84.6562H328.608ZM343.282 88.2174V76.4968H344.738L344.9 77.7612C345.086 77.5002 345.306 77.2655 345.555 77.0634C345.829 76.829 346.141 76.6433 346.478 76.5143C346.887 76.3641 347.321 76.29 347.757 76.2956C348.477 76.2793 349.185 76.4764 349.794 76.8621C350.384 77.236 350.86 77.7659 351.169 78.3934C351.513 79.0704 351.684 79.8216 351.669 80.5809C351.683 81.3441 351.511 82.0992 351.169 82.7815C350.851 83.4006 350.37 83.9211 349.778 84.2865C349.166 84.6621 348.458 84.8535 347.739 84.8378C347.157 84.8495 346.581 84.722 346.058 84.4659C345.587 84.2181 345.19 83.8488 344.908 83.3962V88.2087L343.282 88.2174ZM347.472 83.4421C347.933 83.4519 348.387 83.3288 348.78 83.0875C349.173 82.8463 349.489 82.4971 349.689 82.0815C349.923 81.615 350.039 81.0983 350.028 80.5765C350.04 80.0595 349.923 79.5476 349.689 79.0868C349.488 78.673 349.174 78.3253 348.782 78.0849C348.392 77.8314 347.935 77.7011 347.47 77.7109C347.005 77.7015 346.548 77.8262 346.152 78.0702C345.756 78.3142 345.439 78.6672 345.238 79.0868C345.013 79.5504 344.902 80.0612 344.915 80.5765C344.903 81.0967 345.014 81.6123 345.238 82.0815C345.434 82.4939 345.742 82.8421 346.128 83.0856C346.532 83.3277 346.995 83.4513 347.466 83.4421H347.472ZM353.551 84.6562V73.0012H355.169V84.6562H353.551ZM357.501 84.6562V76.4968H359.119V84.6562H357.501ZM358.328 74.959C358.185 74.9642 358.044 74.9411 357.91 74.8912C357.777 74.8412 357.655 74.7654 357.552 74.6681C357.455 74.5707 357.379 74.4545 357.328 74.3266C357.278 74.1986 357.254 74.0617 357.259 73.9243C357.254 73.7915 357.278 73.6592 357.329 73.5363C357.379 73.4133 357.455 73.3025 357.552 73.2112C357.655 73.1139 357.777 73.038 357.91 72.9881C358.044 72.9382 358.185 72.9151 358.328 72.9203C358.467 72.9163 358.606 72.94 358.737 72.9899C358.867 73.0398 358.987 73.115 359.088 73.2112C359.188 73.3005 359.267 73.4106 359.32 73.5338C359.373 73.657 359.398 73.7903 359.394 73.9243C359.398 74.0629 359.373 74.2007 359.321 74.3289C359.268 74.4571 359.189 74.5726 359.088 74.6681C358.985 74.7661 358.863 74.8424 358.73 74.8924C358.596 74.9424 358.454 74.965 358.312 74.959H358.328ZM361.869 84.6562V75.3965C361.851 74.9225 361.945 74.451 362.144 74.0206C362.328 73.6736 362.625 73.3997 362.986 73.244C363.406 73.0719 363.858 72.9892 364.313 73.0012H365.266V74.3749H364.57C364.269 74.3478 363.969 74.4344 363.729 74.6178C363.567 74.7687 363.486 75.0378 363.486 75.4271V84.6562H361.869ZM360.673 77.8749V76.4968H365.445V77.8749H360.673ZM368.026 88.2196L370.016 83.7528H369.546L366.328 76.499H368.077L370.632 82.4249L373.205 76.499H374.903L369.727 88.2196H368.026ZM376.442 84.6584V76.4968H378.06V84.6562L376.442 84.6584ZM377.266 74.9612C376.979 74.9699 376.701 74.8654 376.49 74.6703C376.394 74.5727 376.318 74.4564 376.268 74.3285C376.218 74.2006 376.195 74.0638 376.199 73.9265C376.195 73.7938 376.218 73.6616 376.268 73.5386C376.318 73.4157 376.394 73.3048 376.49 73.2134C376.701 73.0182 376.979 72.9137 377.266 72.9224C377.406 72.9184 377.545 72.942 377.676 72.9919C377.806 73.0418 377.925 73.1171 378.027 73.2134C378.128 73.3022 378.207 73.4122 378.261 73.5355C378.314 73.6587 378.339 73.7923 378.335 73.9265C378.339 74.0653 378.314 74.2034 378.261 74.3316C378.208 74.4598 378.128 74.5753 378.027 74.6703C377.925 74.7669 377.804 74.8423 377.672 74.8918C377.541 74.9414 377.4 74.9643 377.26 74.959L377.266 74.9612ZM380.366 84.6562V76.4968H381.822L381.92 77.8903C382.17 77.4124 382.549 77.0139 383.013 76.7396C383.505 76.4433 384.071 76.2917 384.646 76.3021C385.225 76.286 385.799 76.4193 386.311 76.6893C386.79 76.9588 387.173 77.372 387.404 77.8706C387.685 78.4876 387.819 79.1617 387.793 79.8393V84.6562H386.176V79.9946C386.176 79.2378 386.008 78.6668 385.673 78.2774C385.489 78.0781 385.263 77.9224 385.011 77.8217C384.759 77.721 384.488 77.6779 384.217 77.6956C383.816 77.691 383.421 77.7993 383.078 78.0082C382.735 78.217 382.457 78.5179 382.276 78.8768C382.071 79.3228 381.972 79.8101 381.986 80.3009V84.6562H380.366ZM393.175 88.4121C392.508 88.4223 391.844 88.3241 391.208 88.1212C390.69 87.9732 390.228 87.6738 389.881 87.2615C389.562 86.8571 389.395 86.3527 389.411 85.8374C389.415 85.5305 389.481 85.2276 389.606 84.9471C389.757 84.6263 389.972 84.3397 390.237 84.105C390.588 83.7984 390.987 83.5523 391.418 83.3765L392.323 84.105C391.774 84.3106 391.4 84.5424 391.208 84.8334C391.038 85.0823 390.943 85.3744 390.932 85.6756C390.922 85.9727 391.026 86.2624 391.223 86.4849C391.439 86.715 391.713 86.8827 392.017 86.9706C392.394 87.084 392.786 87.1386 393.18 87.1324C393.552 87.1392 393.922 87.0792 394.272 86.9553C394.556 86.8561 394.807 86.6823 395 86.4521C395.173 86.2373 395.264 85.9686 395.258 85.6931C395.261 85.5277 395.227 85.3638 395.16 85.2127C395.093 85.0616 394.994 84.9269 394.869 84.8181C394.611 84.5993 394.115 84.4571 393.383 84.4134C392.766 84.3696 392.243 84.3106 391.813 84.2362C391.442 84.1738 391.077 84.0816 390.72 83.9606C390.461 83.8681 390.212 83.7486 389.977 83.604C389.797 83.4862 389.628 83.3506 389.474 83.1993V82.8275L391.101 81.1562L392.412 81.609L390.648 83.2431L390.987 82.5146C391.107 82.5912 391.219 82.6656 391.328 82.7334C391.466 82.8095 391.613 82.869 391.765 82.9106C392.009 82.9774 392.258 83.0263 392.508 83.0571C392.821 83.1009 393.232 83.1424 393.737 83.1862C394.343 83.2111 394.94 83.3429 395.501 83.5756C395.908 83.7402 396.253 84.0287 396.487 84.4003C396.7 84.7742 396.806 85.1994 396.795 85.6296C396.794 86.1002 396.659 86.5608 396.406 86.9574C396.122 87.4113 395.712 87.7719 395.226 87.9943C394.584 88.2917 393.882 88.4348 393.175 88.4121ZM393.175 82.1471C392.565 82.1653 391.959 82.0315 391.413 81.7578C390.958 81.5156 390.58 81.1512 390.32 80.7056C390.069 80.2561 389.94 79.7484 389.947 79.2334C389.937 78.718 390.067 78.2097 390.32 77.7612C390.585 77.3116 390.971 76.9466 391.435 76.709C391.974 76.4257 392.576 76.2863 393.184 76.3043C393.786 76.285 394.383 76.4246 394.915 76.709C395.375 76.945 395.755 77.3109 396.008 77.7612C396.272 78.2063 396.406 78.716 396.397 79.2334C396.404 79.7504 396.269 80.2594 396.008 80.7056C395.755 81.1559 395.375 81.5217 394.915 81.7578C394.378 82.0333 393.779 82.1673 393.175 82.1471ZM393.175 80.8521C393.632 80.876 394.081 80.7321 394.439 80.4474C394.6 80.2913 394.726 80.1018 394.807 79.8921C394.887 79.6824 394.921 79.4576 394.906 79.2334C394.922 79.0113 394.889 78.7886 394.808 78.5812C394.727 78.3738 394.601 78.1871 394.439 78.0346C394.085 77.7404 393.634 77.5905 393.175 77.6146C392.713 77.5929 392.258 77.7424 391.899 78.0346C391.732 78.1843 391.601 78.3701 391.517 78.5778C391.433 78.7856 391.398 79.0098 391.413 79.2334C391.399 79.4591 391.435 79.6853 391.519 79.8954C391.603 80.1054 391.732 80.2941 391.899 80.4474C392.262 80.7301 392.715 80.8736 393.175 80.8521ZM394.502 77.7765L394.115 76.4968H397.462V77.6146L394.502 77.7765ZM403.305 84.6562V73.325H410.455V74.6528H404.922V78.2774H409.969V79.5724H404.922V83.3284H410.455V84.6562H403.305ZM411.688 84.6562L414.503 80.5765L411.688 76.4968H413.436L415.57 79.6709L417.723 76.4968H419.452L416.639 80.5765L419.452 84.6562H417.723L415.57 81.4668L413.436 84.6562H411.688ZM420.868 88.2174V76.4968H422.324L422.486 77.7612C422.672 77.5002 422.893 77.2655 423.142 77.0634C423.416 76.829 423.728 76.6433 424.064 76.5143C424.474 76.3641 424.907 76.29 425.343 76.2956C426.063 76.2793 426.772 76.4764 427.38 76.8621C427.971 77.236 428.447 77.7659 428.755 78.3934C429.099 79.0704 429.271 79.8216 429.256 80.5809C429.269 81.3441 429.097 82.0992 428.755 82.7815C428.437 83.4006 427.957 83.9211 427.365 84.2865C426.752 84.6621 426.044 84.8535 425.325 84.8378C424.743 84.8495 424.167 84.722 423.644 84.4659C423.172 84.2187 422.775 83.8493 422.495 83.3962V88.2087L420.868 88.2174ZM425.059 83.4421C425.52 83.4519 425.974 83.3288 426.367 83.0875C426.76 82.8463 427.075 82.4971 427.275 82.0815C427.509 81.615 427.625 81.0983 427.614 80.5765C427.626 80.0595 427.51 79.5476 427.275 79.0868C427.075 78.673 426.76 78.3253 426.368 78.0849C425.978 77.8317 425.521 77.7014 425.057 77.7109C424.592 77.7015 424.134 77.8262 423.738 78.0702C423.343 78.3142 423.025 78.6672 422.825 79.0868C422.599 79.5504 422.489 80.0612 422.501 80.5765C422.489 81.0967 422.6 81.6123 422.825 82.0815C423.02 82.4939 423.329 82.8421 423.714 83.0856C424.12 83.3289 424.586 83.4525 425.059 83.4421ZM434.825 84.8509C434.099 84.8634 433.383 84.6789 432.753 84.3171C432.151 83.9614 431.658 83.4459 431.33 82.8275C430.984 82.1402 430.812 81.3786 430.829 80.6093C430.81 79.8293 430.982 79.0565 431.33 78.3584C431.654 77.7334 432.147 77.212 432.753 76.8534C433.389 76.4782 434.118 76.288 434.856 76.3043C435.578 76.2835 436.29 76.4686 436.911 76.8381C437.473 77.1842 437.932 77.6763 438.237 78.2621C438.554 78.86 438.716 79.5279 438.707 80.2046C438.707 80.3118 438.707 80.4234 438.69 80.5612C438.672 80.699 438.69 80.8149 438.675 80.9659H432.01V79.8153H437.09C437.09 79.5186 437.03 79.225 436.913 78.9524C436.796 78.6797 436.625 78.4337 436.41 78.2293C435.982 77.8392 435.419 77.6305 434.841 77.6474C434.417 77.6433 433.999 77.7488 433.627 77.9537C433.254 78.1549 432.945 78.4584 432.738 78.8287C432.504 79.276 432.393 79.777 432.414 80.2812V80.7187C432.399 81.2476 432.51 81.7724 432.738 82.2499C432.934 82.633 433.233 82.9532 433.602 83.1737C433.972 83.3942 434.395 83.5062 434.825 83.4968C435.276 83.515 435.721 83.396 436.102 83.1556C436.437 82.9294 436.697 82.6079 436.847 82.2325H438.465C438.325 82.7262 438.082 83.1848 437.752 83.5778C437.409 83.9721 436.984 84.2865 436.506 84.4987C435.977 84.74 435.4 84.8603 434.819 84.8509H434.825ZM440.509 84.6562V76.4968H441.964L442.109 78.0281C442.282 77.6761 442.524 77.3629 442.821 77.1071C443.119 76.8435 443.465 76.6399 443.84 76.5078C444.278 76.3587 444.737 76.2847 445.2 76.289V78.004H444.616C444.294 78.0027 443.973 78.0462 443.663 78.1331C443.367 78.2059 443.09 78.3442 442.854 78.5378C442.613 78.7536 442.429 79.0266 442.321 79.3318C442.18 79.7319 442.114 80.1546 442.126 80.5787V84.6562H440.509ZM446.798 84.6562V76.4968H448.415V84.6562H446.798ZM447.624 74.959C447.336 74.9683 447.057 74.8638 446.846 74.6681C446.749 74.5702 446.674 74.4539 446.624 74.326C446.574 74.1982 446.551 74.0615 446.555 73.9243C446.551 73.7917 446.574 73.6596 446.624 73.5368C446.674 73.4139 446.75 73.303 446.846 73.2112C447.057 73.0155 447.336 72.911 447.624 72.9203C447.763 72.9161 447.902 72.9397 448.032 72.9896C448.162 73.0396 448.281 73.1149 448.382 73.2112C448.483 73.3 448.563 73.41 448.616 73.5333C448.669 73.6566 448.695 73.7901 448.69 73.9243C448.695 74.0631 448.67 74.2012 448.616 74.3294C448.563 74.4577 448.483 74.5731 448.382 74.6681C448.281 74.7649 448.161 74.8405 448.03 74.8905C447.899 74.9405 447.76 74.9637 447.619 74.959H447.624ZM454.418 84.8509C453.691 84.8634 452.975 84.6789 452.345 84.3171C451.743 83.9614 451.25 83.4459 450.922 82.8275C450.576 82.1402 450.405 81.3786 450.422 80.6093C450.402 79.8293 450.574 79.0565 450.922 78.3584C451.247 77.7334 451.74 77.212 452.345 76.8534C452.982 76.4782 453.71 76.288 454.448 76.3043C455.17 76.2835 455.882 76.4686 456.503 76.8381C457.065 77.1842 457.524 77.6763 457.83 78.2621C458.147 78.86 458.308 79.5279 458.3 80.2046C458.3 80.3118 458.3 80.4234 458.282 80.5612C458.265 80.699 458.282 80.8149 458.267 80.9659H451.602V79.8153H456.678C456.678 79.5186 456.618 79.225 456.501 78.9524C456.384 78.6797 456.213 78.4337 455.998 78.2293C455.57 77.8392 455.007 77.6305 454.428 77.6474C454.004 77.6433 453.587 77.7488 453.215 77.9537C452.842 78.1549 452.533 78.4584 452.326 78.8287C452.094 79.2727 451.982 79.7697 452.002 80.2703V80.7187C451.987 81.2476 452.098 81.7724 452.326 82.2499C452.521 82.633 452.821 82.9532 453.19 83.1737C453.56 83.3942 453.983 83.5062 454.413 83.4968C454.863 83.515 455.309 83.396 455.69 83.1556C456.025 82.9294 456.285 82.6079 456.435 82.2325H458.053C457.913 82.7262 457.67 83.1848 457.34 83.5778C456.997 83.9721 456.572 84.2865 456.094 84.4987C455.567 84.739 454.993 84.8593 454.413 84.8509H454.418ZM460.101 84.6562V76.4968H461.557L461.653 77.8903C461.903 77.4124 462.282 77.0139 462.746 76.7396C463.239 76.4429 463.806 76.2912 464.381 76.3021C464.96 76.286 465.534 76.4193 466.047 76.6893C466.524 76.9604 466.906 77.3731 467.14 77.8706C467.419 78.4881 467.551 79.162 467.526 79.8393V84.6562H465.909V79.9946C465.909 79.2378 465.743 78.6668 465.408 78.2774C465.224 78.0781 464.998 77.9224 464.746 77.8217C464.494 77.721 464.223 77.6779 463.952 77.6956C463.551 77.691 463.156 77.7993 462.813 78.0082C462.47 78.217 462.192 78.5179 462.011 78.8768C461.805 79.3225 461.706 79.81 461.721 80.3009V84.6562H460.101ZM473.363 84.8509C472.627 84.8634 471.901 84.6791 471.26 84.3171C470.649 83.9537 470.146 83.4333 469.804 82.8099C469.463 82.1177 469.285 81.3561 469.285 80.5842C469.285 79.8122 469.463 79.0507 469.804 78.3584C470.141 77.7315 470.645 77.2105 471.26 76.8534C471.897 76.4805 472.625 76.2906 473.363 76.3043C474.257 76.273 475.136 76.5468 475.855 77.0809C476.524 77.6012 476.979 78.3505 477.131 79.1853H475.45C475.356 78.7363 475.088 78.343 474.705 78.0915C474.304 77.8243 473.829 77.6883 473.347 77.7021C472.924 77.7 472.509 77.8175 472.15 78.0412C471.767 78.2745 471.459 78.6112 471.26 79.0125C471.029 79.5029 470.918 80.0413 470.936 80.5831C470.93 81.0067 470.996 81.4283 471.131 81.8299C471.246 82.1616 471.421 82.4688 471.649 82.7356C471.865 82.9772 472.129 83.1703 472.425 83.3021C472.718 83.4224 473.031 83.4834 473.347 83.4815C473.672 83.4864 473.995 83.4315 474.301 83.3196C474.582 83.2084 474.831 83.0305 475.028 82.8012C475.235 82.5713 475.38 82.2929 475.45 81.9918H477.131C476.971 82.8193 476.518 83.5611 475.855 84.0809C475.132 84.6136 474.251 84.8851 473.354 84.8509H473.363ZM482.712 84.8509C481.986 84.8634 481.271 84.679 480.642 84.3171C480.039 83.9614 479.547 83.4459 479.219 82.8275C478.872 82.1404 478.7 81.3787 478.716 80.6093C478.697 79.8292 478.87 79.0563 479.219 78.3584C479.543 77.7334 480.036 77.212 480.642 76.8534C481.278 76.478 482.006 76.2878 482.745 76.3043C483.466 76.2838 484.179 76.4689 484.799 76.8381C485.361 77.1848 485.82 77.6768 486.126 78.2621C486.442 78.8602 486.603 79.5281 486.594 80.2046C486.594 80.3118 486.594 80.4234 486.579 80.5612C486.563 80.699 486.579 80.8149 486.561 80.9659H479.899V79.8153H484.976C484.978 79.5184 484.918 79.2245 484.801 78.9518C484.684 78.679 484.512 78.4331 484.297 78.2293C483.87 77.8389 483.307 77.6302 482.729 77.6474C482.305 77.6429 481.887 77.7484 481.516 77.9537C481.142 78.1543 480.833 78.458 480.627 78.8287C480.387 79.2743 480.269 79.7754 480.285 80.2812V80.7187C480.27 81.2476 480.381 81.7724 480.609 82.2499C480.805 82.6327 481.104 82.9526 481.473 83.1731C481.842 83.3936 482.265 83.5058 482.694 83.4968C483.145 83.5154 483.591 83.3963 483.973 83.1556C484.308 82.9293 484.567 82.6077 484.716 82.2325H486.334C486.199 82.7329 485.953 83.1965 485.614 83.5888C485.275 83.9811 484.853 84.2921 484.377 84.4987C483.852 84.7376 483.28 84.8578 482.703 84.8509H482.712ZM489.038 84.7371C488.751 84.7458 488.472 84.6414 488.262 84.4462C488.168 84.3499 488.094 84.2359 488.044 84.111C487.994 83.986 487.969 83.8523 487.971 83.7178C487.967 83.5829 487.991 83.4487 488.041 83.3234C488.091 83.1981 488.166 83.0844 488.262 82.9893C488.363 82.8899 488.483 82.8119 488.615 82.76C488.747 82.7081 488.887 82.6834 489.029 82.6874C489.167 82.6836 489.304 82.7077 489.432 82.7582C489.561 82.8088 489.677 82.8848 489.776 82.9816C489.874 83.0785 489.952 83.1942 490.004 83.3218C490.056 83.4494 490.082 83.5864 490.081 83.7243C490.084 83.8619 490.058 83.9986 490.006 84.1259C489.954 84.2532 489.876 84.3684 489.778 84.4641C489.679 84.5599 489.561 84.6341 489.433 84.6822C489.304 84.7304 489.166 84.7513 489.029 84.7437L489.038 84.7371Z" fill="#222222"/>
</svg>
